<svg width="44" height="42" viewBox="0 0 44 42" fill="none" xmlns="http://www.w3.org/2000/svg">
<path d="M43.1671 39.7875L28.5341 14.0995C28.2795 13.6571 27.9051 13.2898 27.4511 13.0372V9.76435H36.1181C36.501 9.76435 36.8683 9.61744 37.1391 9.35592C37.4099 9.0944 37.5621 8.7397 37.5621 8.36986V1.39449C37.5621 1.21137 37.5247 1.03003 37.4521 0.860844C37.3796 0.691656 37.2732 0.537929 37.1391 0.408438C37.005 0.278947 36.8458 0.176229 36.6707 0.10615C36.4955 0.0360697 36.3077 0 36.1181 0H26.0061C25.6231 0 25.2558 0.146919 24.985 0.408438C24.7142 0.669956 24.5621 1.02465 24.5621 1.39449V13.043C24.108 13.2956 23.7336 13.6628 23.4791 14.1052L18.7841 22.3187L28.3171 38.3747C28.6213 38.9 28.8046 39.4825 28.8545 40.0825C28.9044 40.6825 28.8196 41.2858 28.6061 41.8512H41.8951C42.1457 41.851 42.392 41.7879 42.6098 41.6681C42.8276 41.5484 43.0096 41.3761 43.1377 41.1681C43.2659 40.9601 43.336 40.7235 43.3412 40.4815C43.3463 40.2395 43.2863 40.0004 43.1671 39.7875Z" fill="#7C3AED"/>
<path d="M15.519 22.3193C15.2671 21.8899 14.9017 21.5327 14.4601 21.2842C14.0185 21.0357 13.5166 20.9048 13.0055 20.9048C12.4945 20.9048 11.9926 21.0357 11.551 21.2842C11.1094 21.5327 10.744 21.8899 10.492 22.3193L0.194047 39.7553C0.0667821 39.9677 -0.000154746 40.2089 2.6863e-07 40.4543C0.000155283 40.6998 0.0673966 40.9409 0.19493 41.1532C0.322463 41.3655 0.50577 41.5416 0.726327 41.6636C0.946885 41.7856 1.19688 41.8492 1.45105 41.848H24.562C24.8162 41.8492 25.0662 41.7856 25.2868 41.6636C25.5073 41.5416 25.6906 41.3655 25.8182 41.1532C25.9457 40.9409 26.0129 40.6998 26.0131 40.4543C26.0132 40.2089 25.9463 39.9677 25.819 39.7553L15.519 22.3193Z" fill="#7C3AED"/>
</svg>
